<svg width="197" height="145" viewBox="0 0 197 145" fill="none" xmlns="http://www.w3.org/2000/svg">
<path d="M38.9281 145H78.7281L90.1281 98.6C95.1281 78.2 99.7281 44.8 99.7281 44.8H100.728C100.728 44.8 105.328 78.2 109.728 98.6L120.328 145H159.528L185.928 20.4L196.728 17V0.800003H148.528V17L161.528 20.4L156.328 46.8C152.528 65.2 146.528 111.6 146.528 111.6H145.528C145.528 111.6 137.728 65.6 132.728 47.2L120.528 0.800003H90.3281L78.7281 50.2C73.1281 73.4 66.9281 111.4 66.9281 111.4H65.9281C65.9281 111.4 61.5281 72 56.9281 49.8L50.9281 20.4L62.9281 17V0.800003H0.328125V17L10.3281 20.4L38.9281 145Z" fill="black"/>
</svg>